<mxfile host="app.diagrams.net" modified="2024-04-27T11:57:53.879Z" agent="Mozilla/5.0 (Windows NT 10.0; Win64; x64) AppleWebKit/537.36 (KHTML, like Gecko) Chrome/124.0.0.0 Safari/537.36" etag="hVjH9Y-rqGyRQlkn9EHA" version="24.3.0" type="github">
  <diagram name="Page-1" id="XUwWF2s2ND4r8KXp4mdf">
    <mxGraphModel dx="3970" dy="2270" grid="1" gridSize="10" guides="1" tooltips="1" connect="1" arrows="1" fold="1" page="1" pageScale="1" pageWidth="900" pageHeight="1600" math="0" shadow="0">
      <root>
        <mxCell id="0" />
        <mxCell id="1" parent="0" />
        <mxCell id="uLa3YSmyuf6-ixNmp2Hf-1" value="Instructor want to upload assignment (Question and Answer) " style="html=1;overflow=block;blockSpacing=1;whiteSpace=wrap;fontSize=16;spacing=9;verticalAlign=middle;strokeColor=#000000;rounded=1;absoluteArcSize=1;arcSize=9;fillColor=default;strokeWidth=NaN;lucidId=g~-n_72lhCFz;" vertex="1" parent="1">
          <mxGeometry x="777" y="480" width="255" height="90" as="geometry" />
        </mxCell>
        <mxCell id="uLa3YSmyuf6-ixNmp2Hf-2" value="" style="html=1;overflow=block;blockSpacing=1;whiteSpace=wrap;shape=image;fontSize=13;spacing=3.8;strokeColor=none;strokeOpacity=100;strokeWidth=0;image=https://images.lucid.app/images/cf29f117-7d04-4672-97fa-d16898096b3e/content;imageAspect=0;lucidId=vh_nGRNSJd6I;" vertex="1" parent="1">
          <mxGeometry x="852" y="360" width="105" height="105" as="geometry" />
        </mxCell>
        <mxCell id="uLa3YSmyuf6-ixNmp2Hf-3" value="Instructor visit the gradepilot wepsite and register an account" style="html=1;overflow=block;blockSpacing=1;whiteSpace=wrap;fontSize=16;spacing=9;verticalAlign=middle;strokeColor=#000000;rounded=1;absoluteArcSize=1;arcSize=9;fillColor=default;strokeWidth=NaN;lucidId=4i_nZ2Z2NjIl;" vertex="1" parent="1">
          <mxGeometry x="1235" y="480" width="255" height="90" as="geometry" />
        </mxCell>
        <mxCell id="uLa3YSmyuf6-ixNmp2Hf-4" value="Instructor upload assignment (Question and Answer)  in template" style="html=1;overflow=block;blockSpacing=1;whiteSpace=wrap;fontSize=16;spacing=9;verticalAlign=middle;strokeColor=#000000;rounded=1;absoluteArcSize=1;arcSize=9;fillColor=default;strokeWidth=NaN;lucidId=Lo_nSm~tk-nF;" vertex="1" parent="1">
          <mxGeometry x="1692" y="480" width="255" height="90" as="geometry" />
        </mxCell>
        <mxCell id="uLa3YSmyuf6-ixNmp2Hf-5" value="" style="html=1;jettySize=18;whiteSpace=wrap;fontSize=13;strokeOpacity=100;strokeWidth=3;rounded=1;arcSize=12;edgeStyle=orthogonalEdgeStyle;startArrow=none;endArrow=block;endFill=1;exitX=0.847;exitY=0.714;exitPerimeter=0;entryX=0.032;entryY=0.714;entryPerimeter=0;lucidId=ld_nqYoT4GKa;" edge="1" parent="1" source="uLa3YSmyuf6-ixNmp2Hf-2" target="uLa3YSmyuf6-ixNmp2Hf-6">
          <mxGeometry width="100" height="100" relative="1" as="geometry">
            <Array as="points" />
          </mxGeometry>
        </mxCell>
        <mxCell id="uLa3YSmyuf6-ixNmp2Hf-6" value="" style="html=1;overflow=block;blockSpacing=1;whiteSpace=wrap;shape=image;fontSize=13;spacing=0;strokeColor=none;strokeOpacity=100;rounded=1;absoluteArcSize=1;arcSize=9;strokeWidth=0;image=https://images.lucid.app/images/8611eeb5-6785-4f5e-a9c1-1b1d1205eb57/content;imageAspect=0;lucidId=Ki_ng3.P~-tq;" vertex="1" parent="1">
          <mxGeometry x="1310" y="360" width="105" height="105" as="geometry" />
        </mxCell>
        <mxCell id="uLa3YSmyuf6-ixNmp2Hf-7" value="" style="html=1;overflow=block;blockSpacing=1;whiteSpace=wrap;shape=image;fontSize=13;spacing=0;strokeColor=none;strokeOpacity=100;rounded=1;absoluteArcSize=1;arcSize=9;strokeWidth=0;image=https://images.lucid.app/images/6fe8032e-52cd-45f6-b373-1c3d6a6fee62/content;imageAspect=0;lucidId=eB_nZKGIF~u5;" vertex="1" parent="1">
          <mxGeometry x="2277" y="368" width="100" height="100" as="geometry" />
        </mxCell>
        <mxCell id="uLa3YSmyuf6-ixNmp2Hf-8" value="System generate unit-test for each method in the code" style="html=1;overflow=block;blockSpacing=1;whiteSpace=wrap;fontSize=16;spacing=9;verticalAlign=middle;strokeColor=#000000;rounded=1;absoluteArcSize=1;arcSize=9;fillColor=default;strokeWidth=NaN;lucidId=uB_nMYnb3KVG;" vertex="1" parent="1">
          <mxGeometry x="2200" y="480" width="255" height="90" as="geometry" />
        </mxCell>
        <mxCell id="uLa3YSmyuf6-ixNmp2Hf-9" value="" style="html=1;overflow=block;blockSpacing=1;whiteSpace=wrap;shape=image;fontSize=13;spacing=3.8;strokeColor=none;strokeOpacity=100;strokeWidth=0;image=https://images.lucid.app/images/15e8bce5-4d7f-41ec-a2ed-1eda033fa88e/content;imageAspect=0;lucidId=kK_nUjFdbjG9;" vertex="1" parent="1">
          <mxGeometry x="2262" y="690" width="110" height="110" as="geometry" />
        </mxCell>
        <mxCell id="uLa3YSmyuf6-ixNmp2Hf-10" value="Instructor has the option edit the grade scale or accept it" style="html=1;overflow=block;blockSpacing=1;whiteSpace=wrap;fontSize=16;spacing=9;verticalAlign=middle;strokeColor=#000000;rounded=1;absoluteArcSize=1;arcSize=9;fillColor=default;strokeWidth=NaN;lucidId=rK_nJaGioGZU;" vertex="1" parent="1">
          <mxGeometry x="2200" y="825" width="255" height="90" as="geometry" />
        </mxCell>
        <mxCell id="uLa3YSmyuf6-ixNmp2Hf-11" value="&lt;div style=&quot;display: flex; justify-content: center; text-align: center; align-items: baseline; font-size: 0; line-height: 1.25;margin-top: -2px;&quot;&gt;&lt;span&gt;&lt;span style=&quot;font-size:16px;&quot;&gt;Instructor make the task and then &lt;/span&gt;&lt;span style=&quot;font-size:16.7px;color:#000000;&quot;&gt;assign&lt;/span&gt;&lt;span style=&quot;font-size:16px;color:#000000;&quot;&gt; &lt;/span&gt;&lt;span style=&quot;font-size:16px;&quot;&gt;it to the students&lt;/span&gt;&lt;/span&gt;&lt;/div&gt;" style="html=1;overflow=block;blockSpacing=1;whiteSpace=wrap;fontSize=13;spacing=9;verticalAlign=middle;strokeColor=#000000;rounded=1;absoluteArcSize=1;arcSize=9;fillColor=default;strokeWidth=NaN;lucidId=fM_n-XyTZdL4;" vertex="1" parent="1">
          <mxGeometry x="1692" y="825" width="255" height="90" as="geometry" />
        </mxCell>
        <mxCell id="uLa3YSmyuf6-ixNmp2Hf-12" value="" style="html=1;overflow=block;blockSpacing=1;whiteSpace=wrap;shape=image;fontSize=13;spacing=3.8;strokeColor=none;strokeOpacity=100;strokeWidth=0;image=https://images.lucid.app/images/f3780656-6d7f-45b9-bf1d-8745f2e24056/content;imageAspect=0;lucidId=-R_nAK9wsuUp;" vertex="1" parent="1">
          <mxGeometry x="1772" y="379" width="96" height="96" as="geometry" />
        </mxCell>
        <mxCell id="uLa3YSmyuf6-ixNmp2Hf-13" value="" style="html=1;overflow=block;blockSpacing=1;whiteSpace=wrap;shape=image;fontSize=13;spacing=0;strokeColor=none;strokeOpacity=100;rounded=1;absoluteArcSize=1;arcSize=9;strokeWidth=0;image=https://images.lucid.app/images/3f09c404-20ad-480c-8180-72ea19dbebd9/content;imageAspect=0;lucidId=iT_nMNf7s1cx;" vertex="1" parent="1">
          <mxGeometry x="1757" y="690" width="110" height="110" as="geometry" />
        </mxCell>
        <mxCell id="uLa3YSmyuf6-ixNmp2Hf-14" value="" style="html=1;overflow=block;blockSpacing=1;whiteSpace=wrap;fontSize=13;spacing=3.8;strokeColor=none;fillOpacity=0;rounded=1;absoluteArcSize=1;arcSize=9;fillColor=#ffffff;strokeWidth=0;lucidId=QU_nBEwUVHys;" vertex="1" parent="1">
          <mxGeometry x="1226" y="770" width="126" height="28" as="geometry" />
        </mxCell>
        <mxCell id="uLa3YSmyuf6-ixNmp2Hf-15" value="" style="html=1;overflow=block;blockSpacing=1;whiteSpace=wrap;shape=image;fontSize=13;spacing=0;strokeColor=none;strokeOpacity=100;rounded=1;absoluteArcSize=1;arcSize=9;strokeWidth=0;image=https://images.lucid.app/images/2850595e-226b-4c26-bd48-080ef7069bdb/content;imageAspect=0;lucidId=uW_nDHdMSMSp;" vertex="1" parent="1">
          <mxGeometry x="1313" y="690" width="104" height="104" as="geometry" />
        </mxCell>
        <mxCell id="uLa3YSmyuf6-ixNmp2Hf-16" value="students get notification on email/phone for that task" style="html=1;overflow=block;blockSpacing=1;whiteSpace=wrap;fontSize=16;spacing=9;verticalAlign=middle;strokeColor=#000000;rounded=1;absoluteArcSize=1;arcSize=9;fillColor=default;strokeWidth=NaN;lucidId=GW_ndmxsG6gZ;" vertex="1" parent="1">
          <mxGeometry x="1242" y="825" width="255" height="90" as="geometry" />
        </mxCell>
        <mxCell id="uLa3YSmyuf6-ixNmp2Hf-17" value="students upload their code and get feedback and they can upload it agian" style="html=1;overflow=block;blockSpacing=1;whiteSpace=wrap;fontSize=16;spacing=9;verticalAlign=middle;strokeColor=#000000;rounded=1;absoluteArcSize=1;arcSize=9;fillColor=default;strokeWidth=NaN;lucidId=U0_nzfAXelq3;" vertex="1" parent="1">
          <mxGeometry x="777" y="825" width="255" height="90" as="geometry" />
        </mxCell>
        <mxCell id="uLa3YSmyuf6-ixNmp2Hf-18" value="" style="html=1;overflow=block;blockSpacing=1;whiteSpace=wrap;shape=image;fontSize=13;spacing=0;strokeColor=none;strokeOpacity=100;rounded=1;absoluteArcSize=1;arcSize=9;strokeWidth=0;image=https://images.lucid.app/images/a20d1592-d6b2-4e59-8706-604a2c6ea2d1/content;imageAspect=0;lucidId=d4_nnMkV1p_3;" vertex="1" parent="1">
          <mxGeometry x="845" y="690" width="120" height="120" as="geometry" />
        </mxCell>
        <mxCell id="uLa3YSmyuf6-ixNmp2Hf-19" value="System grade the students&#39; assignment after the due date passed" style="html=1;overflow=block;blockSpacing=1;whiteSpace=wrap;fontSize=16;spacing=9;verticalAlign=middle;strokeColor=#000000;rounded=1;absoluteArcSize=1;arcSize=9;fillColor=default;strokeWidth=NaN;lucidId=p4_nxWOM-g6~;" vertex="1" parent="1">
          <mxGeometry x="777" y="1215" width="255" height="90" as="geometry" />
        </mxCell>
        <mxCell id="uLa3YSmyuf6-ixNmp2Hf-20" value="" style="html=1;overflow=block;blockSpacing=1;whiteSpace=wrap;shape=image;fontSize=13;spacing=0;strokeColor=none;strokeOpacity=100;rounded=1;absoluteArcSize=1;arcSize=9;strokeWidth=0;image=https://images.lucid.app/images/3c8733b0-6be3-481e-991e-d37541d2ebf4/content;imageAspect=0;lucidId=l7_niEyFFGEM;" vertex="1" parent="1">
          <mxGeometry x="845" y="1065" width="137" height="137" as="geometry" />
        </mxCell>
        <mxCell id="uLa3YSmyuf6-ixNmp2Hf-21" value="" style="html=1;overflow=block;blockSpacing=1;whiteSpace=wrap;shape=image;fontSize=13;spacing=0;strokeColor=none;strokeOpacity=100;rounded=1;absoluteArcSize=1;arcSize=9;strokeWidth=0;image=https://images.lucid.app/images/76cc80a8-c106-4ad4-9dfa-ff58b1cd513d/content;imageAspect=0;lucidId=s9_n96sF-jcK;" vertex="1" parent="1">
          <mxGeometry x="1307" y="1075" width="116" height="116" as="geometry" />
        </mxCell>
        <mxCell id="uLa3YSmyuf6-ixNmp2Hf-22" value=" System send the students grades to students and Instructor via (email, sms etc..)" style="html=1;overflow=block;blockSpacing=1;whiteSpace=wrap;fontSize=16;spacing=9;verticalAlign=middle;strokeColor=#000000;rounded=1;absoluteArcSize=1;arcSize=9;fillColor=default;strokeWidth=NaN;lucidId=F9_n2n2zkJpn;" vertex="1" parent="1">
          <mxGeometry x="1235" y="1215" width="255" height="90" as="geometry" />
        </mxCell>
        <mxCell id="uLa3YSmyuf6-ixNmp2Hf-23" value="" style="html=1;jettySize=18;whiteSpace=wrap;fontSize=13;strokeOpacity=100;strokeWidth=3;rounded=1;arcSize=12;edgeStyle=orthogonalEdgeStyle;startArrow=none;endArrow=block;endFill=1;exitX=0.969;exitY=0.681;exitPerimeter=0;entryX=0.031;entryY=0.547;entryPerimeter=0;lucidId=1-_nRsYmtrjV;" edge="1" parent="1" source="uLa3YSmyuf6-ixNmp2Hf-6" target="uLa3YSmyuf6-ixNmp2Hf-12">
          <mxGeometry width="100" height="100" relative="1" as="geometry">
            <Array as="points" />
          </mxGeometry>
        </mxCell>
        <mxCell id="uLa3YSmyuf6-ixNmp2Hf-24" value="" style="html=1;jettySize=18;whiteSpace=wrap;fontSize=13;strokeOpacity=100;strokeWidth=3;rounded=1;arcSize=12;edgeStyle=orthogonalEdgeStyle;startArrow=none;endArrow=block;endFill=1;exitX=0.969;exitY=0.427;exitPerimeter=0;entryX=0.037;entryY=0.524;entryPerimeter=0;lucidId=G__nIQE1pVD~;" edge="1" parent="1" source="uLa3YSmyuf6-ixNmp2Hf-12" target="uLa3YSmyuf6-ixNmp2Hf-7">
          <mxGeometry width="100" height="100" relative="1" as="geometry">
            <Array as="points" />
          </mxGeometry>
        </mxCell>
        <mxCell id="uLa3YSmyuf6-ixNmp2Hf-25" value="" style="html=1;jettySize=18;whiteSpace=wrap;fontSize=13;strokeOpacity=100;strokeWidth=3;rounded=1;arcSize=12;edgeStyle=orthogonalEdgeStyle;startArrow=none;endArrow=block;endFill=1;exitX=0.963;exitY=0.522;exitPerimeter=0;entryX=0.938;entryY=0.484;entryPerimeter=0;lucidId=P__nck6mVBAa;" edge="1" parent="1" source="uLa3YSmyuf6-ixNmp2Hf-7" target="uLa3YSmyuf6-ixNmp2Hf-9">
          <mxGeometry width="100" height="100" relative="1" as="geometry">
            <Array as="points">
              <mxPoint x="2517" y="420" />
              <mxPoint x="2517" y="743" />
            </Array>
          </mxGeometry>
        </mxCell>
        <mxCell id="uLa3YSmyuf6-ixNmp2Hf-26" value="" style="html=1;jettySize=18;whiteSpace=wrap;fontSize=13;strokeOpacity=100;strokeWidth=3;rounded=1;arcSize=12;edgeStyle=orthogonalEdgeStyle;startArrow=none;endArrow=block;endFill=1;exitX=0.102;exitY=0.5;exitPerimeter=0;entryX=0.979;entryY=0.5;entryPerimeter=0;lucidId=_~_nXb6O8xkQ;" edge="1" parent="1" source="uLa3YSmyuf6-ixNmp2Hf-9" target="uLa3YSmyuf6-ixNmp2Hf-13">
          <mxGeometry width="100" height="100" relative="1" as="geometry">
            <Array as="points" />
          </mxGeometry>
        </mxCell>
        <mxCell id="uLa3YSmyuf6-ixNmp2Hf-27" value="" style="html=1;jettySize=18;whiteSpace=wrap;fontSize=13;strokeOpacity=100;strokeWidth=3;rounded=1;arcSize=12;edgeStyle=orthogonalEdgeStyle;startArrow=none;endArrow=block;endFill=1;exitX=0;exitY=0.474;exitPerimeter=0;entryX=1;entryY=0.5;entryPerimeter=0;lucidId=ha.nzfznojWz;" edge="1" parent="1" source="uLa3YSmyuf6-ixNmp2Hf-13" target="uLa3YSmyuf6-ixNmp2Hf-15">
          <mxGeometry width="100" height="100" relative="1" as="geometry">
            <Array as="points" />
          </mxGeometry>
        </mxCell>
        <mxCell id="uLa3YSmyuf6-ixNmp2Hf-28" value="" style="html=1;jettySize=18;whiteSpace=wrap;fontSize=13;strokeOpacity=100;strokeWidth=3;rounded=1;arcSize=12;edgeStyle=orthogonalEdgeStyle;startArrow=none;endArrow=block;endFill=1;exitX=0;exitY=0.5;exitPerimeter=0;entryX=1;entryY=0.435;entryPerimeter=0;lucidId=Ca.n6pJN~6Xe;" edge="1" parent="1" source="uLa3YSmyuf6-ixNmp2Hf-15" target="uLa3YSmyuf6-ixNmp2Hf-18">
          <mxGeometry width="100" height="100" relative="1" as="geometry">
            <Array as="points" />
          </mxGeometry>
        </mxCell>
        <mxCell id="uLa3YSmyuf6-ixNmp2Hf-29" value="" style="html=1;jettySize=18;whiteSpace=wrap;fontSize=13;strokeOpacity=100;strokeWidth=3;rounded=1;arcSize=12;edgeStyle=orthogonalEdgeStyle;startArrow=none;endArrow=block;endFill=1;exitX=0;exitY=0.379;exitPerimeter=0;entryX=0.097;entryY=0.5;entryPerimeter=0;lucidId=_a.nqwl53F_Z;" edge="1" parent="1" source="uLa3YSmyuf6-ixNmp2Hf-18" target="uLa3YSmyuf6-ixNmp2Hf-20">
          <mxGeometry width="100" height="100" relative="1" as="geometry">
            <Array as="points">
              <mxPoint x="710" y="810" />
              <mxPoint x="710" y="1133" />
            </Array>
          </mxGeometry>
        </mxCell>
        <mxCell id="uLa3YSmyuf6-ixNmp2Hf-30" value="" style="html=1;jettySize=18;whiteSpace=wrap;fontSize=13;strokeOpacity=100;strokeWidth=3;rounded=1;arcSize=12;edgeStyle=orthogonalEdgeStyle;startArrow=none;endArrow=block;endFill=1;exitX=0.75;exitY=0.5;exitPerimeter=0;entryX=0.001;entryY=0.5;entryPerimeter=0;lucidId=Cb.nTFyvcLu6;" edge="1" parent="1" source="uLa3YSmyuf6-ixNmp2Hf-20" target="uLa3YSmyuf6-ixNmp2Hf-21">
          <mxGeometry width="100" height="100" relative="1" as="geometry">
            <Array as="points" />
          </mxGeometry>
        </mxCell>
      </root>
    </mxGraphModel>
  </diagram>
</mxfile>
